# xmcd CD database file
#
# Track frame offsets:
#	150
#	19478
#	33489
#	44729
#	60971
#	67803
#	82356
#	95061
#	102449
#	115976
#	129991
#	141960
#	151631
#	160347
#	175319
#	190638
#
# Disc length: 2699 seconds
#
# Revision: 1
# Processed by: cddbd v1.5.2PL0 Copyright (c) Steve Scherf et al.
# Submitted via: CDex 1.70beta2
#
DISCID=dc0a8910
DTITLE=Various Artist - Hrichy mladi
DYEAR=2000
DGENRE=Country
TTITLE0=Slepec [Honza Vycital]
TTITLE1=Eldorado [Kapitan Kid]
TTITLE2=Motorovi trampi [Wabi Danek]
TTITLE3=Uhliky [Paberky]
TTITLE4=Sbohem kamaradko [Pavel Zalman Lohonka]
TTITLE5=Flaming star [Marko Cermak]
TTITLE6=Nezvanej host [Miki Ryvola]
TTITLE7=Kastrovali kocoura [Tony Linhart]
TTITLE8=Uz padaj vlocky bile [Honza Vycital]
TTITLE9=Oci jako ma mama ma [Kapitan Kid]
TTITLE10=Mesic nad Portlandem [Jitka Vrbova]
TTITLE11=Pochod na Fort Hazard [Miky Ryvola]
TTITLE12=Tenkrat o vanocich [Pavel Zalman Lohonka]
TTITLE13=Rani blues [Wabi Danek]
TTITLE14=Volant je muzu kormidlo [Tony Linhart] 
TTITLE15=Ja bych chtel bejt bohatej [W.Ryvola a H.Vycital] 
EXTD=YEAR: 2000
EXTT0=
EXTT1=
EXTT2=
EXTT3=
EXTT4=
EXTT5=
EXTT6=
EXTT7=
EXTT8=
EXTT9=
EXTT10=
EXTT11=
EXTT12=
EXTT13=
EXTT14=
EXTT15=
PLAYORDER=
